<mxfile host="app.diagrams.net" modified="2024-03-13T10:51:41.306Z" agent="Mozilla/5.0 (Windows NT 10.0; Win64; x64) AppleWebKit/537.36 (KHTML, like Gecko) Chrome/122.0.0.0 Safari/537.36" etag="9oMWooyEXQJYxsqk9eSE" version="24.0.5" type="github">
  <diagram name="Page-1" id="GPkuQUCnlq3ohZIxKowG">
    <mxGraphModel dx="794" dy="420" grid="1" gridSize="10" guides="1" tooltips="1" connect="1" arrows="1" fold="1" page="1" pageScale="1" pageWidth="827" pageHeight="1169" math="0" shadow="0">
      <root>
        <mxCell id="0" />
        <mxCell id="1" parent="0" />
        <mxCell id="MFQDof5vlD9xu1kdHKQL-1" value="User" style="swimlane;childLayout=stackLayout;horizontal=1;startSize=50;horizontalStack=0;rounded=1;fontSize=14;fontStyle=0;strokeWidth=2;resizeParent=0;resizeLast=1;shadow=0;dashed=0;align=center;arcSize=4;whiteSpace=wrap;html=1;" vertex="1" parent="1">
          <mxGeometry x="330" y="160" width="120" height="180" as="geometry" />
        </mxCell>
        <mxCell id="MFQDof5vlD9xu1kdHKQL-2" value="ID_User&lt;br&gt;Username&lt;br&gt;Mot de passe&lt;br&gt;Email&lt;br&gt;Pays&lt;br&gt;Amis&lt;br&gt;IsAdmin&lt;br&gt;IsBloque" style="align=left;strokeColor=none;fillColor=none;spacingLeft=4;fontSize=12;verticalAlign=top;resizable=0;rotatable=0;part=1;html=1;" vertex="1" parent="MFQDof5vlD9xu1kdHKQL-1">
          <mxGeometry y="50" width="120" height="130" as="geometry" />
        </mxCell>
        <mxCell id="MFQDof5vlD9xu1kdHKQL-3" value="Attribute" style="ellipse;whiteSpace=wrap;html=1;align=center;" vertex="1" parent="1">
          <mxGeometry x="160" y="230" width="100" height="40" as="geometry" />
        </mxCell>
        <mxCell id="MFQDof5vlD9xu1kdHKQL-4" style="edgeStyle=orthogonalEdgeStyle;rounded=0;orthogonalLoop=1;jettySize=auto;html=1;entryX=-0.025;entryY=0.313;entryDx=0;entryDy=0;entryPerimeter=0;" edge="1" parent="1" source="MFQDof5vlD9xu1kdHKQL-3" target="MFQDof5vlD9xu1kdHKQL-2">
          <mxGeometry relative="1" as="geometry">
            <mxPoint x="320" y="240" as="targetPoint" />
          </mxGeometry>
        </mxCell>
        <mxCell id="MFQDof5vlD9xu1kdHKQL-10" style="edgeStyle=orthogonalEdgeStyle;rounded=0;orthogonalLoop=1;jettySize=auto;html=1;exitX=1;exitY=0.75;exitDx=0;exitDy=0;" edge="1" parent="1">
          <mxGeometry relative="1" as="geometry">
            <mxPoint x="450" y="220" as="targetPoint" />
            <mxPoint x="450" y="297.5" as="sourcePoint" />
            <Array as="points">
              <mxPoint x="510" y="298" />
              <mxPoint x="510" y="221" />
              <mxPoint x="454" y="221" />
            </Array>
          </mxGeometry>
        </mxCell>
        <mxCell id="MFQDof5vlD9xu1kdHKQL-12" value="Etre ami avec" style="edgeLabel;html=1;align=center;verticalAlign=middle;resizable=0;points=[];" vertex="1" connectable="0" parent="MFQDof5vlD9xu1kdHKQL-10">
          <mxGeometry x="-0.0194" y="-3" relative="1" as="geometry">
            <mxPoint as="offset" />
          </mxGeometry>
        </mxCell>
        <mxCell id="MFQDof5vlD9xu1kdHKQL-13" value="0,n" style="edgeLabel;html=1;align=center;verticalAlign=middle;resizable=0;points=[];" vertex="1" connectable="0" parent="MFQDof5vlD9xu1kdHKQL-10">
          <mxGeometry x="-0.9629" relative="1" as="geometry">
            <mxPoint x="16" as="offset" />
          </mxGeometry>
        </mxCell>
        <mxCell id="MFQDof5vlD9xu1kdHKQL-14" value="1,1" style="edgeLabel;html=1;align=center;verticalAlign=middle;resizable=0;points=[];" vertex="1" connectable="0" parent="MFQDof5vlD9xu1kdHKQL-10">
          <mxGeometry x="0.9932" y="3" relative="1" as="geometry">
            <mxPoint x="20" as="offset" />
          </mxGeometry>
        </mxCell>
      </root>
    </mxGraphModel>
  </diagram>
</mxfile>
